<svg width="90" height="85" viewBox="0 0 90 85" fill="none" xmlns="http://www.w3.org/2000/svg">
<path d="M8.59375 76L7.45312 72.8281H3.08594L1.96875 76H0L4.27344 64.5312H6.30469L10.5781 76H8.59375ZM6.96094 71.2188L5.89062 68.1094C5.8125 67.901 5.70312 67.5729 5.5625 67.125C5.42708 66.6771 5.33333 66.349 5.28125 66.1406C5.14062 66.7812 4.9349 67.4818 4.66406 68.2422L3.63281 71.2188H6.96094ZM17.9844 76L17.7266 74.8672H17.6328C17.3776 75.2682 17.013 75.5833 16.5391 75.8125C16.0703 76.0417 15.5339 76.1562 14.9297 76.1562C13.8828 76.1562 13.1016 75.8958 12.5859 75.375C12.0703 74.8542 11.8125 74.0651 11.8125 73.0078V67.3594H13.6641V72.6875C13.6641 73.349 13.7995 73.8464 14.0703 74.1797C14.3411 74.5078 14.7656 74.6719 15.3438 74.6719C16.1146 74.6719 16.6797 74.4427 17.0391 73.9844C17.4036 73.5208 17.5859 72.7474 17.5859 71.6641V67.3594H19.4297V76H17.9844ZM24.9609 76.1562C23.8828 76.1562 23.0417 75.7656 22.4375 74.9844C21.8333 74.2031 21.5312 73.1068 21.5312 71.6953C21.5312 70.2786 21.8359 69.1771 22.4453 68.3906C23.0599 67.599 23.9089 67.2031 24.9922 67.2031C26.1276 67.2031 26.9922 67.6224 27.5859 68.4609H27.6797C27.5911 67.8411 27.5469 67.3516 27.5469 66.9922V63.8438H29.3906V76H27.9531L27.6328 74.8672H27.5469C26.9583 75.7266 26.0964 76.1562 24.9609 76.1562ZM25.4531 74.6719C26.2083 74.6719 26.7578 74.4609 27.1016 74.0391C27.4453 73.612 27.6224 72.9219 27.6328 71.9688V71.7109C27.6328 70.6224 27.4557 69.849 27.1016 69.3906C26.7474 68.9323 26.1927 68.7031 25.4375 68.7031C24.7917 68.7031 24.2943 68.9661 23.9453 69.4922C23.5964 70.013 23.4219 70.7578 23.4219 71.7266C23.4219 72.6849 23.5911 73.4167 23.9297 73.9219C24.2682 74.4219 24.776 74.6719 25.4531 74.6719ZM33.8516 76H32.0156V67.3594H33.8516V76ZM31.9062 65.0703C31.9062 64.7422 31.9948 64.4896 32.1719 64.3125C32.3542 64.1354 32.612 64.0469 32.9453 64.0469C33.2682 64.0469 33.5182 64.1354 33.6953 64.3125C33.8776 64.4896 33.9688 64.7422 33.9688 65.0703C33.9688 65.3828 33.8776 65.6302 33.6953 65.8125C33.5182 65.9896 33.2682 66.0781 32.9453 66.0781C32.612 66.0781 32.3542 65.9896 32.1719 65.8125C31.9948 65.6302 31.9062 65.3828 31.9062 65.0703ZM44.1484 71.6641C44.1484 73.0755 43.7865 74.1771 43.0625 74.9688C42.3385 75.7604 41.3307 76.1562 40.0391 76.1562C39.2318 76.1562 38.5182 75.974 37.8984 75.6094C37.2786 75.2448 36.8021 74.7214 36.4688 74.0391C36.1354 73.3568 35.9688 72.5651 35.9688 71.6641C35.9688 70.263 36.3281 69.1693 37.0469 68.3828C37.7656 67.5964 38.7786 67.2031 40.0859 67.2031C41.3359 67.2031 42.3255 67.6068 43.0547 68.4141C43.7839 69.2161 44.1484 70.2995 44.1484 71.6641ZM37.8594 71.6641C37.8594 73.6589 38.5964 74.6562 40.0703 74.6562C41.5286 74.6562 42.2578 73.6589 42.2578 71.6641C42.2578 69.6901 41.5234 68.7031 40.0547 68.7031C39.2839 68.7031 38.724 68.9583 38.375 69.4688C38.0312 69.9792 37.8594 70.7109 37.8594 71.6641ZM52.3906 76L49.1094 67.3594H51.0469L52.8047 72.3828C53.1068 73.2266 53.2891 73.9089 53.3516 74.4297H53.4141C53.4609 74.0547 53.6432 73.3724 53.9609 72.3828L55.7188 67.3594H57.6719L54.375 76H52.3906ZM66.6484 71.6641C66.6484 73.0755 66.2865 74.1771 65.5625 74.9688C64.8385 75.7604 63.8307 76.1562 62.5391 76.1562C61.7318 76.1562 61.0182 75.974 60.3984 75.6094C59.7786 75.2448 59.3021 74.7214 58.9688 74.0391C58.6354 73.3568 58.4688 72.5651 58.4688 71.6641C58.4688 70.263 58.8281 69.1693 59.5469 68.3828C60.2656 67.5964 61.2786 67.2031 62.5859 67.2031C63.8359 67.2031 64.8255 67.6068 65.5547 68.4141C66.2839 69.2161 66.6484 70.2995 66.6484 71.6641ZM60.3594 71.6641C60.3594 73.6589 61.0964 74.6562 62.5703 74.6562C64.0286 74.6562 64.7578 73.6589 64.7578 71.6641C64.7578 69.6901 64.0234 68.7031 62.5547 68.7031C61.7839 68.7031 61.224 68.9583 60.875 69.4688C60.5312 69.9792 60.3594 70.7109 60.3594 71.6641ZM71.6797 76.1562C70.6016 76.1562 69.7604 75.7656 69.1562 74.9844C68.5521 74.2031 68.25 73.1068 68.25 71.6953C68.25 70.2786 68.5547 69.1771 69.1641 68.3906C69.7786 67.599 70.6276 67.2031 71.7109 67.2031C72.8464 67.2031 73.7109 67.6224 74.3047 68.4609H74.3984C74.3099 67.8411 74.2656 67.3516 74.2656 66.9922V63.8438H76.1094V76H74.6719L74.3516 74.8672H74.2656C73.6771 75.7266 72.8151 76.1562 71.6797 76.1562ZM72.1719 74.6719C72.9271 74.6719 73.4766 74.4609 73.8203 74.0391C74.1641 73.612 74.3411 72.9219 74.3516 71.9688V71.7109C74.3516 70.6224 74.1745 69.849 73.8203 69.3906C73.4661 68.9323 72.9115 68.7031 72.1562 68.7031C71.5104 68.7031 71.013 68.9661 70.6641 69.4922C70.3151 70.013 70.1406 70.7578 70.1406 71.7266C70.1406 72.6849 70.3099 73.4167 70.6484 73.9219C70.987 74.4219 71.4948 74.6719 72.1719 74.6719ZM80.5703 76H78.7344V67.3594H80.5703V76ZM78.625 65.0703C78.625 64.7422 78.7135 64.4896 78.8906 64.3125C79.0729 64.1354 79.3307 64.0469 79.6641 64.0469C79.987 64.0469 80.237 64.1354 80.4141 64.3125C80.5964 64.4896 80.6875 64.7422 80.6875 65.0703C80.6875 65.3828 80.5964 65.6302 80.4141 65.8125C80.237 65.9896 79.987 66.0781 79.6641 66.0781C79.3307 66.0781 79.0729 65.9896 78.8906 65.8125C78.7135 65.6302 78.625 65.3828 78.625 65.0703ZM86.6875 76.1562C85.3802 76.1562 84.3854 75.776 83.7031 75.0156C83.026 74.25 82.6875 73.1536 82.6875 71.7266C82.6875 70.2734 83.0417 69.1562 83.75 68.375C84.4635 67.5938 85.4922 67.2031 86.8359 67.2031C87.7474 67.2031 88.5677 67.3724 89.2969 67.7109L88.7422 69.1875C87.9661 68.8854 87.3255 68.7344 86.8203 68.7344C85.3255 68.7344 84.5781 69.7266 84.5781 71.7109C84.5781 72.6797 84.763 73.4089 85.1328 73.8984C85.5078 74.3828 86.0547 74.625 86.7734 74.625C87.5911 74.625 88.3646 74.4219 89.0938 74.0156V75.6172C88.7656 75.8099 88.4141 75.9479 88.0391 76.0312C87.6693 76.1146 87.2188 76.1562 86.6875 76.1562ZM89.6406 63.7422V63.9531C88.9844 64.6354 88.5208 65.138 88.25 65.4609C87.9844 65.7839 87.7812 66.0651 87.6406 66.3047H85.6094C85.2708 65.7578 84.6094 64.974 83.625 63.9531V63.7422H84.8594C85.5781 64.2109 86.1641 64.6875 86.6172 65.1719C87.1224 64.651 87.7161 64.1745 88.3984 63.7422H89.6406Z" fill="#82807E"/>
<path d="M15 27.9333C15 26.0924 16.4924 24.6 18.3333 24.6V24.6V41V41C16.4924 41 15 39.5076 15 37.6666V27.9333Z" fill="#3C3835"/>
<path d="M75 27.9333C75 26.0924 73.5076 24.6 71.6667 24.6V24.6V41V41C73.5076 41 75 39.5076 75 37.6666V27.9333Z" fill="#3C3835"/>
<path fill-rule="evenodd" clip-rule="evenodd" d="M20 22.96C20.8577 10.1384 31.6984 0 44.9455 0C58.1925 0 69.0332 10.1384 69.8909 22.96H70V41L66.6667 41V22.6429H66.5722C65.8288 11.8301 56.4335 3.28 44.9527 3.28C33.472 3.28 24.0767 11.8301 23.3333 22.6429V41L20 41V22.96Z" fill="#3C3835"/>
<path d="M40.5 18.9378L51 25L40.5 31.0622V18.9378Z" stroke="#3C3835" stroke-width="3"/>
</svg>
