<svg width="35" height="88" viewBox="0 0 35 88" fill="none" xmlns="http://www.w3.org/2000/svg">
<rect y="36" width="5" height="3" fill="#F6F4F0"/>
<path fill-rule="evenodd" clip-rule="evenodd" d="M19.5 15C23.6421 15 27 11.6421 27 7.5C27 3.35786 23.6421 0 19.5 0C15.3579 0 12 3.35786 12 7.5C12 11.6421 15.3579 15 19.5 15ZM19.5 12C21.9853 12 24 9.98528 24 7.5C24 5.01472 21.9853 3 19.5 3C17.0147 3 15 5.01472 15 7.5C15 9.98528 17.0147 12 19.5 12Z" fill="#3C3835"/>
<path d="M5.6875 79V67.5781H7.55469V79H5.6875ZM17.9844 79H16.1406V73.6875C16.1406 73.0208 16.0052 72.5234 15.7344 72.1953C15.4688 71.8672 15.0443 71.7031 14.4609 71.7031C13.6849 71.7031 13.1172 71.9323 12.7578 72.3906C12.3984 72.849 12.2188 73.6172 12.2188 74.6953V79H10.3828V70.3594H11.8203L12.0781 71.4922H12.1719C12.4323 71.0807 12.8021 70.763 13.2812 70.5391C13.7604 70.3151 14.2917 70.2031 14.875 70.2031C16.9479 70.2031 17.9844 71.2578 17.9844 73.3672V79ZM24.875 71.75H22.7656V79H20.9219V71.75H19.5V70.8906L20.9219 70.3281V69.7656C20.9219 68.7448 21.1615 67.9896 21.6406 67.5C22.1198 67.0052 22.8516 66.7578 23.8359 66.7578C24.4818 66.7578 25.1172 66.8646 25.7422 67.0781L25.2578 68.4688C24.8047 68.3229 24.3724 68.25 23.9609 68.25C23.5443 68.25 23.2396 68.3802 23.0469 68.6406C22.8594 68.8958 22.7656 69.2812 22.7656 69.7969V70.3594H24.875V71.75ZM34.0156 74.6641C34.0156 76.0755 33.6536 77.1771 32.9297 77.9688C32.2057 78.7604 31.1979 79.1562 29.9062 79.1562C29.099 79.1562 28.3854 78.974 27.7656 78.6094C27.1458 78.2448 26.6693 77.7214 26.3359 77.0391C26.0026 76.3568 25.8359 75.5651 25.8359 74.6641C25.8359 73.263 26.1953 72.1693 26.9141 71.3828C27.6328 70.5964 28.6458 70.2031 29.9531 70.2031C31.2031 70.2031 32.1927 70.6068 32.9219 71.4141C33.651 72.2161 34.0156 73.2995 34.0156 74.6641ZM27.7266 74.6641C27.7266 76.6589 28.4635 77.6562 29.9375 77.6562C31.3958 77.6562 32.125 76.6589 32.125 74.6641C32.125 72.6901 31.3906 71.7031 29.9219 71.7031C29.151 71.7031 28.5911 71.9583 28.2422 72.4688C27.8984 72.9792 27.7266 73.7109 27.7266 74.6641Z" fill="#82807E"/>
<path d="M6.5 42.5V36.5H7C10.5899 36.5 13.5 33.5899 13.5 30V18.5H25.5V42.5H6.5Z" stroke="#3C3835" stroke-width="3"/>
</svg>
